<svg xmlns="http://www.w3.org/2000/svg" viewBox="0 0 64 64">
  <!-- Speech bubble with WhatsApp green -->
  <path d="M32 4 C16.5 4 4 16.5 4 32 C4 37.5 5.6 42.6 8.4 46.9 L5.2 56.8 L15.1 53.6 C19.4 56.4 24.5 58 30 58 C45.5 58 58 45.5 58 30 C58 14.5 45.5 2 30 2 L32 4 Z" fill="#25D366" transform="translate(2, 2)"/>

  <!-- Simple fork icon in white -->
  <g fill="white" transform="translate(22, 18)">
    <rect x="9" y="8" width="3" height="16" rx="1"/>
    <path d="M5 0 L7 0 L7 8 L14 8 L14 0 L16 0 L16 9 C16 10.5 15 11.5 14 12 L14 24 L11 24 L11 12 L11 12 C10 11.5 9 10.5 9 9 L9 0 Z"/>
  </g>
</svg>
